<?xml version="1.0" encoding="utf-8"?>
<!-- Generator: Adobe Illustrator 25.2.3, SVG Export Plug-In . SVG Version: 6.00 Build 0)  -->
<!DOCTYPE svg PUBLIC "-//W3C//DTD SVG 1.1//EN" "http://www.w3.org/Graphics/SVG/1.1/DTD/svg11.dtd" [
	<!ENTITY ns_extend "http://ns.adobe.com/Extensibility/1.0/">
	<!ENTITY ns_ai "http://ns.adobe.com/AdobeIllustrator/10.0/">
	<!ENTITY ns_graphs "http://ns.adobe.com/Graphs/1.0/">
	<!ENTITY ns_vars "http://ns.adobe.com/Variables/1.0/">
	<!ENTITY ns_imrep "http://ns.adobe.com/ImageReplacement/1.0/">
	<!ENTITY ns_sfw "http://ns.adobe.com/SaveForWeb/1.0/">
	<!ENTITY ns_custom "http://ns.adobe.com/GenericCustomNamespace/1.0/">
	<!ENTITY ns_adobe_xpath "http://ns.adobe.com/XPath/1.0/">
]>
<svg version="1.1" id="Layer_1" xmlns:x="&ns_extend;" xmlns:i="&ns_ai;" xmlns:graph="&ns_graphs;"
	 xmlns="http://www.w3.org/2000/svg" xmlns:xlink="http://www.w3.org/1999/xlink" x="0px" y="0px" viewBox="0 0 51.2 32.9"
	 style="enable-background:new 0 0 51.2 32.9;" xml:space="preserve">
<style type="text/css">
	.st0{fill:none;stroke:#FFCC00;stroke-linecap:round;stroke-linejoin:round;stroke-miterlimit:10;}
</style>
<metadata>
	<sfw  xmlns="&ns_sfw;">
		<slices></slices>
		<sliceSourceBounds  bottomLeftOrigin="true" height="32.9" width="51.2" x="354.4" y="-318.4"></sliceSourceBounds>
	</sfw>
</metadata>
<g>
	<path class="st0" d="M33.2,7.2"/>
	<path class="st0" d="M16,28.5c0,2.2-1.8,3.9-3.9,3.9c-2.2,0-3.9-1.8-3.9-3.9s1.8-3.9,3.9-3.9C14.2,24.5,16,26.3,16,28.5z"/>
	<path class="st0" d="M25.7,28.5c0,2.2-1.8,3.9-3.9,3.9c-2.2,0-3.9-1.8-3.9-3.9s1.8-3.9,3.9-3.9C24,24.5,25.7,26.3,25.7,28.5z"/>
	<path class="st0" d="M43.5,28.5c0,2.2-1.8,3.9-3.9,3.9c-2.2,0-3.9-1.8-3.9-3.9s1.8-3.9,3.9-3.9C41.7,24.5,43.5,26.3,43.5,28.5z"/>
	<path class="st0" d="M30.2,7.2c0,0,10.5,0,12.6,0c2,0,2.5,1.7,2.5,1.7l4.7,9c0,0,0.7,1.1,0.7,2.6c0,1.6,0,5.2,0,6.5
		c0,1.3-1.2,1.5-1.2,1.5H46"/>
	<path class="st0" d="M8.5,0.5C6.5,0.5,6,2.2,6,2.2l-4.8,9.1c0,0-0.7,1.1-0.7,2.7"/>
	<path class="st0" d="M6,28.5"/>
	<path class="st0" d="M6,28.5H3.5c-1.6,0-3-1.3-3-3V14"/>
	<path class="st0" d="M46.9,18.9h-9.1c-1.6,0-3-1.3-3-3v-2.4c0-1.6,1.3-3,3-3H43"/>
	<line class="st0" x1="23.7" y1="6" x2="23.7" y2="21"/>
	<line class="st0" x1="16.8" y1="6" x2="16.8" y2="21"/>
	<line class="st0" x1="9.9" y1="6" x2="9.9" y2="21"/>
	<polyline class="st0" points="29.5,0.5 29.5,28.5 33.2,28.5 	"/>
	<line class="st0" x1="8.5" y1="0.5" x2="29.5" y2="0.5"/>
	<path class="st0" d="M35.6,5.5v-1c0-0.2,0.2-0.4,0.4-0.4h3.3c0.2,0,0.4,0.2,0.4,0.4v1"/>
</g>
</svg>
