<svg xmlns="http://www.w3.org/2000/svg">

	<symbol id="email" viewBox="0 0 32 32">
		<path d="M29.083 11.005c-0.116-1.253 0.27-3.177-0.137-4.321-0.033-0.096-0.121-0.176-0.221-0.188 0-0.003 0-0.003 0-0.005-0.59-0.818-2.219-0.562-3.062-0.576-2.726-0.058-5.455-0.043-8.18-0.043-4.952 0-10.039-0.241-14.974 0.207-0.192 0.020-0.278 0.189-0.233 0.332-0.138 0.083-0.23 0.24-0.18 0.462 0.73 3.232 0.761 6.584 0.693 9.881-0.034 1.59-0.155 3.177-0.318 4.754-0.13 1.256-0.689 2.711-0.401 3.955 0.069 0.293 0.507 0.454 0.731 0.229 1.779 1.226 5.612 0.736 7.571 0.803 2.416 0.084 4.809 0.159 7.225 0.141 2.611-0.020 5.224-0.058 7.832-0.197 0.839-0.046 2.817 0.141 3.251-0.861 0.075-0.174 0.041-0.368-0.053-0.512 0.221-0.644 0.134-1.397 0.126-2.073-0.036-2.332 0.527-4.613 0.605-6.943 0.053-1.689-0.126-3.366-0.275-5.044zM7.308 7.196c2.857 0.139 5.717 0.121 8.577 0.129 2.764 0.010 5.529 0 8.291 0.029 0.527 0.004 1.404-0.064 2.222-0.089-1.046 1.019-2.026 2.493-2.58 3.123-1.882 2.153-5.856 7.342-9.053 5.776-2.614-1.28-4.574-4.42-6.532-6.488-0.782-0.821-1.5-1.969-2.745-2.555 0.768 0.040 1.114 0.038 1.82 0.074zM5.226 8.476c1.215 0.954 2.222 2.196 3.233 3.354 1.105 1.265 2.305 2.91 3.702 4.166-0.379 0.277-0.727 0.63-1.061 0.926-1.191 1.061-2.313 2.206-3.455 3.318-1.204 1.176-2.7 2.457-3.998 3.496 0.447-2.174 0.366-5.176 0.421-6.867 0.097-3.028 0.4-6.463-0.543-9.404 0.49 0.425 1.204 0.618 1.7 1.010zM23.486 24.958c-2.283 0.084-4.568 0.106-6.851 0.118-2.096 0.015-4.17-0.073-6.265-0.144-1.507-0.053-3.012-0.101-4.52-0.164-0.646-0.026-0.962-0.132-1.622-0.111 1.146-0.548 2.272-1.736 2.846-2.18 1.228-0.952 2.307-2.152 3.427-3.226 0.823-0.792 1.952-1.524 2.76-2.392 0.421 0.281 0.861 0.516 1.321 0.692 1.579 0.593 3.087 0.106 4.44-0.771 1.495 1.456 2.911 2.969 4.252 4.571 0.926 1.105 1.942 2.656 3.166 3.649-1.078 0.031-2.35-0.065-2.953-0.044zM27.484 20.213c-0.118 0.817-0.108 2.202-0.089 3.019 0.007 0.327 0.007 0.656 0.005 0.984 0 0.118 0 0.212 0.003 0.29-0.798-1.39-2.301-2.943-3.276-4.005-1.372-1.495-2.844-2.926-4.444-4.18 0.945-0.715 1.803-1.568 2.54-2.304 1.132-1.125 2.224-2.289 3.264-3.498 0.495-0.574 1.312-2.295 2.084-2.99-0.507 1.721 0.18 4.987 0.245 5.967 0.161 2.407 0.017 4.329-0.331 6.717z" />
	</symbol>

	<symbol id="point" viewBox="0 0 32 32">
		<path d="M15.719 28.626c-0.187 0-0.366-0.081-0.487-0.224-0.37-0.43-9.058-10.614-9.058-15.493 0-5.046 4.282-9.15 9.545-9.15 5.262 0 9.543 4.104 9.543 9.15 0 4.879-8.686 15.062-9.056 15.493-0.121 0.142-0.3 0.224-0.487 0.224zM15.719 5.043c-4.556 0-8.262 3.529-8.262 7.867 0 3.434 5.566 10.571 8.262 13.812 2.694-3.24 8.26-10.378 8.26-13.812 0-4.337-3.706-7.867-8.26-7.867zM15.719 17.426c-2.592 0-4.7-2.025-4.7-4.516 0-2.492 2.109-4.52 4.7-4.52s4.697 2.027 4.697 4.52c0 2.491-2.107 4.516-4.697 4.516zM15.719 9.674c-1.884 0-3.416 1.452-3.416 3.235 0 1.782 1.533 3.234 3.416 3.234s3.413-1.45 3.413-3.234c0.001-1.782-1.531-3.235-3.412-3.235z" />
	</symbol>

	<symbol id="phone" viewBox="0 0 32 32">
		<path d="M22.593 18.999c-0.484-0.499-1.070-0.767-1.693-0.767-0.614 0-1.205 0.261-1.712 0.764l-1.583 1.555c-0.13-0.069-0.259-0.133-0.386-0.198-0.18-0.087-0.352-0.171-0.496-0.261-1.482-0.929-2.83-2.14-4.122-3.706-0.627-0.781-1.048-1.437-1.353-2.105 0.41-0.37 0.792-0.758 1.163-1.128 0.138-0.138 0.28-0.282 0.42-0.42 1.052-1.040 1.052-2.382 0-3.42l-1.367-1.35c-0.156-0.154-0.316-0.31-0.466-0.468-0.302-0.305-0.616-0.624-0.943-0.918-0.486-0.476-1.068-0.728-1.679-0.728-0.61 0-1.202 0.253-1.702 0.728-0.006 0.003-0.006 0.003-0.010 0.009l-1.702 1.697c-0.641 0.631-1.008 1.402-1.088 2.299-0.118 1.443 0.31 2.788 0.64 3.666 0.812 2.159 2.025 4.162 3.833 6.305 2.195 2.585 4.834 4.627 7.849 6.067 1.151 0.537 2.69 1.175 4.407 1.284 0.105 0.003 0.216 0.009 0.315 0.009 1.157 0 2.127-0.41 2.891-1.226 0.006-0.009 0.017-0.015 0.020-0.025 0.259-0.31 0.561-0.593 0.877-0.895 0.216-0.202 0.437-0.413 0.652-0.637 0.495-0.508 0.755-1.101 0.755-1.709 0-0.613-0.266-1.202-0.77-1.696l-2.752-2.725zM24.388 24.204c-0.006 0-0.006 0.006 0 0-0.195 0.207-0.395 0.395-0.611 0.603-0.324 0.305-0.657 0.627-0.966 0.989-0.506 0.533-1.102 0.785-1.884 0.785-0.075 0-0.156 0-0.231-0.004-1.487-0.095-2.869-0.668-3.906-1.156-2.835-1.356-5.323-3.278-7.392-5.715-1.709-2.029-2.851-3.909-3.608-5.923-0.466-1.233-0.635-2.191-0.56-3.095 0.049-0.579 0.275-1.057 0.689-1.467l1.709-1.687c0.246-0.227 0.506-0.35 0.761-0.35 0.317 0 0.572 0.188 0.73 0.347 0.007 0.003 0.011 0.009 0.018 0.015 0.304 0.28 0.595 0.573 0.901 0.883 0.154 0.16 0.315 0.316 0.476 0.479l1.367 1.35c0.533 0.524 0.533 1.008 0 1.533-0.144 0.143-0.285 0.286-0.43 0.424-0.42 0.424-0.822 0.819-1.259 1.205-0.010 0.010-0.019 0.016-0.023 0.023-0.431 0.424-0.35 0.84-0.26 1.121 0.006 0.017 0.010 0.031 0.017 0.046 0.353 0.851 0.856 1.652 1.616 2.606l0.004 0.006c1.384 1.679 2.842 2.989 4.448 3.992 0.207 0.13 0.417 0.233 0.616 0.333 0.181 0.087 0.351 0.171 0.496 0.259 0.020 0.011 0.040 0.025 0.060 0.035 0.17 0.084 0.332 0.124 0.496 0.124 0.416 0 0.676-0.256 0.762-0.34l1.713-1.693c0.17-0.165 0.441-0.369 0.756-0.369 0.31 0 0.567 0.193 0.722 0.357 0.006 0.008 0.006 0.008 0.011 0.011l2.759 2.724c0.512 0.504 0.512 1.021 0.002 1.547zM16.118 9.292c0.066-0.36 0.41-0.601 0.781-0.543 1.588 0.267 3.036 1.008 4.182 2.139 1.147 1.135 1.899 2.561 2.17 4.129 0.058 0.363-0.188 0.711-0.556 0.77-0.042 0.006-0.077 0.009-0.117 0.009-0.325 0-0.609-0.227-0.666-0.552-0.226-1.296-0.84-2.472-1.793-3.413-0.952-0.938-2.144-1.551-3.456-1.768-0.37-0.059-0.611-0.41-0.545-0.771zM26.995 15.582c-0.041 0.004-0.076 0.010-0.116 0.010-0.327 0-0.611-0.227-0.668-0.553-0.395-2.303-1.497-4.403-3.191-6.075-1.693-1.664-3.821-2.757-6.155-3.146-0.37-0.066-0.615-0.405-0.555-0.772 0.065-0.36 0.41-0.607 0.774-0.543 2.615 0.442 4.995 1.658 6.887 3.525 1.895 1.869 3.126 4.215 3.573 6.795 0.065 0.359-0.184 0.705-0.548 0.758z" />
	</symbol>

	<symbol id="arrow-left" viewBox="0 0 32 32">
		<path d="M11.47 16.145c0-0.359 0.159-0.796 0.477-1.315l5.496-10.275c0.279-0.399 0.678-0.598 1.195-0.598 0.397 0 0.756 0.148 1.076 0.447 0.317 0.299 0.477 0.627 0.477 0.986 0 0.2-0.060 0.399-0.179 0.598l-5.498 10.156 5.498 10.096c0.119 0.16 0.179 0.359 0.179 0.598 0 0.359-0.17 0.687-0.508 0.986-0.339 0.299-0.728 0.447-1.165 0.447-0.479 0-0.836-0.199-1.076-0.598l-5.496-10.216c-0.319-0.515-0.477-0.954-0.477-1.313z" />
	</symbol>

	<symbol id="arrow-right" viewBox="0 0 32 32">
		<path d="M19.715 17.459l-5.496 10.216c-0.24 0.399-0.598 0.598-1.076 0.598-0.438 0-0.826-0.148-1.165-0.447-0.337-0.299-0.508-0.627-0.508-0.986 0-0.239 0.060-0.438 0.179-0.598l5.498-10.096-5.498-10.156c-0.119-0.199-0.179-0.397-0.179-0.598 0-0.359 0.16-0.687 0.477-0.986 0.32-0.299 0.679-0.447 1.076-0.447 0.518 0 0.916 0.199 1.195 0.598l5.496 10.275c0.319 0.519 0.477 0.956 0.477 1.315s-0.159 0.797-0.477 1.313z" />
	</symbol>

	<symbol id="arrow-up" viewBox="0 0 32 32">
		<path d="M17.459 12.285l10.216 5.496c0.399 0.24 0.598 0.598 0.598 1.076 0 0.438-0.148 0.826-0.447 1.165-0.299 0.337-0.627 0.508-0.986 0.508-0.239 0-0.438-0.060-0.598-0.179l-10.096-5.498-10.156 5.498c-0.199 0.119-0.397 0.179-0.598 0.179-0.359 0-0.687-0.16-0.986-0.477-0.299-0.32-0.447-0.679-0.447-1.076 0-0.518 0.199-0.916 0.598-1.195l10.275-5.496c0.519-0.319 0.956-0.477 1.315-0.477s0.797 0.159 1.313 0.477z"></path>
	</symbol>

</svg>