<svg xmlns="http://www.w3.org/2000/svg" viewBox="0 0 234 75" width="234" height="75">
	<path fill="#000" d="M141.655,28.202H123.56l-1.343,9.588h17.794l0.504-0.011l0.447-0.032l0.398-0.051
		l0.344-0.069l0.292-0.081l0.237-0.093l0.184-0.097l0.137-0.099l0.117-0.113l0.122-0.156l0.122-0.206l0.121-0.258l0.113-0.311
		l0.105-0.364l0.092-0.416l0.077-0.477l0.592-4.22l0.048-0.432l0.02-0.376l-0.008-0.329l-0.029-0.277l-0.047-0.226l-0.063-0.178
		l-0.066-0.131l-0.066-0.093l-0.078-0.075l-0.12-0.082l-0.176-0.087l-0.235-0.082l-0.297-0.071l-0.354-0.054l-0.412-0.032
		L141.655,28.202L141.655,28.202z M79.86,43.232h15.665l-5.875-14.041L79.86,43.232L79.86,43.232z M152.748,57.736l5.128-36.583
		h37.2l-0.999,7.131h-28.623l-1.276,9.1h16.147l-0.986,7.048h-16.147l-1.973,14.066h-7.716h-0.861h-10.707l-12.203-13.898h-8.469
		l-1.948,13.898h-8.089h-0.49h-8.821l-3.467-8.302h-23.41l-5.714,8.302h-8.481h-0.538H51.62l4.678-33.37l0.029-0.199l0.044-0.258
		l0.057-0.315l0.068-0.375l0.083-0.434l0.097-0.495l0.073-0.371l-0.11,0.154l-0.2,0.27l-0.195,0.257l-0.187,0.238l-0.179,0.226
		l-0.169,0.206L33.406,50.988h-3.008L14.766,24.657l-0.032-0.049l-0.033-0.053l-0.033-0.053l-0.03-0.057l-0.034-0.06l-0.034-0.063
		l-0.027-0.053l-0.203-0.349l-0.207-0.371l-0.196-0.369l-0.167-0.331l-0.002,0.028l-0.031,0.253l-0.03,0.261l-0.033,0.271
		l-0.035,0.277l-0.038,0.283l-0.037,0.292l-0.04,0.3l-0.042,0.306l-0.045,0.315L8.805,58.499H0.139L7.108,8.78h7.842l18.491,30.492
		L58.952,8.78h8.858l-6.839,48.786l26.168-36.413h7.204l16.507,36.517l5.119-36.517h29.318l0.506,0.008l0.494,0.019l0.479,0.036
		l0.462,0.047l0.443,0.062l0.427,0.077l0.41,0.091l0.395,0.106l0.382,0.124l0.362,0.138l0.344,0.156l0.332,0.175l0.31,0.193
		l0.296,0.211l0.273,0.228l0.252,0.25l0.232,0.269l0.209,0.285l0.188,0.303l0.17,0.317l0.144,0.334l0.124,0.348l0.102,0.358
		l0.084,0.373l0.063,0.386l0.044,0.397l0.026,0.409l0.009,0.424l-0.009,0.435l-0.026,0.448l-0.041,0.462l-0.059,0.468l-1.112,7.942
		l-0.073,0.464l-0.086,0.455l-0.1,0.442l-0.111,0.429l-0.127,0.412l-0.136,0.399l-0.154,0.388l-0.165,0.369l-0.178,0.355
		l-0.196,0.342l-0.208,0.325l-0.227,0.312l-0.236,0.295l-0.251,0.278l-0.267,0.263l-0.281,0.245l-0.298,0.227l-0.313,0.21
		l-0.328,0.195l-0.342,0.176l-0.358,0.164l-0.372,0.146l-0.387,0.131l-0.399,0.118l-0.417,0.103l-0.426,0.087l-0.444,0.075
		l-0.456,0.058l-0.469,0.047l-0.485,0.033l-0.499,0.019l-0.508,0.008h-2.512L152.748,57.736L152.748,57.736z"/>
	<path fill="#000" d="M218.044,66.584c0-0.119-0.018-0.218-0.057-0.305
		c-0.038-0.088-0.106-0.16-0.199-0.223c-0.082-0.052-0.173-0.087-0.271-0.104c-0.099-0.018-0.227-0.027-0.389-0.027h-0.551v1.483
		h0.472c0.155,0,0.298-0.012,0.433-0.042c0.136-0.031,0.246-0.082,0.328-0.155c0.084-0.075,0.145-0.162,0.182-0.255
		C218.026,66.856,218.044,66.736,218.044,66.584L218.044,66.584L218.044,66.584z M219.624,69.724h-1.092l-1.364-1.704h-0.591v1.704
		h-0.791v-4.397h1.34c0.302,0,0.539,0.012,0.713,0.033c0.178,0.023,0.354,0.083,0.535,0.188c0.191,0.108,0.332,0.241,0.416,0.391
		c0.088,0.158,0.132,0.354,0.132,0.595c0,0.322-0.089,0.583-0.268,0.788c-0.178,0.201-0.411,0.365-0.695,0.484L219.624,69.724
		L219.624,69.724z M220.839,67.608c0-1.005-0.35-1.858-1.057-2.567c-0.701-0.705-1.551-1.061-2.543-1.061
		c-0.994,0-1.845,0.355-2.55,1.061c-0.702,0.709-1.054,1.563-1.054,2.567c0,1.003,0.352,1.86,1.054,2.569
		c0.705,0.707,1.556,1.063,2.55,1.063c0.992,0,1.842-0.355,2.543-1.063C220.489,69.469,220.839,68.611,220.839,67.608
		L220.839,67.608L220.839,67.608z M221.392,67.608c0,1.147-0.406,2.127-1.219,2.94c-0.813,0.813-1.791,1.221-2.941,1.221
		c-1.147,0-2.126-0.408-2.938-1.221c-0.814-0.813-1.221-1.793-1.221-2.94s0.406-2.126,1.221-2.938
		c0.812-0.812,1.79-1.217,2.938-1.217c1.15,0,2.129,0.405,2.941,1.217C220.985,65.482,221.392,66.461,221.392,67.608L221.392,67.608
		L221.392,67.608z"/>
	<path fill="#FF7000" d="M165.806,3.194c56.53,7.189,63.975,25.492,28.139,70.991 C251.629,21.653,250.042-9.289,165.806,3.194L165.806,3.194z"/>
</svg>
