<?xml version="1.0" encoding="utf-8"?>
<!-- Generator: Adobe Illustrator 26.3.1, SVG Export Plug-In . SVG Version: 6.00 Build 0)  -->
<svg version="1.1" id="Vrstva_1" xmlns="http://www.w3.org/2000/svg" xmlns:xlink="http://www.w3.org/1999/xlink" x="0px" y="0px"
	 viewBox="0 0 213.4 195.4" style="enable-background:new 0 0 213.4 195.4;" xml:space="preserve">
<style type="text/css">
	.st0{fill:#FF7000;}
</style>
<g>
	<path class="st0" d="M212.3,163.7c-4.1,3.3-3.6,8.6-6.5,11.8c-2.8-2.3,0.5-7.5-5.1-9.2c0.2,5.1,0.5,9.8,0.7,14.4
		c-0.4,0.1-0.7,0.2-1.1,0.3c-1.6-2.6-3.2-5.2-4.8-7.9c-3.3-5.3-3.3-5.3-6.2-5.6c0,0.3-0.1,0.7,0,0.9c3.7,7.6,7.5,15.2,11.3,22.7
		c0.7,1.3,1.7,2.5,2.8,4.1c0.9-1.1,1.5-1.5,1.7-2c2.9-8.8,5.7-17.7,8.4-26.6C213.6,166.1,212.8,165.1,212.3,163.7z"/>
	<path class="st0" d="M120.9,37.3c0.3,2.9,0.4,2.9,13.5,12.5c1.5,1.1,2.8,2.2,4.7,0.9C137.1,46.7,125.6,38.3,120.9,37.3z"/>
	<path class="st0" d="M167.2,84.5c3.1,6,6.2,12.1,9.4,18.1c0.4,0.7,1.4,1.1,2.3,1.7C179.3,99.9,172,86.3,167.2,84.5z"/>
	<path class="st0" d="M146.2,57.9c5.2,6.4,9.9,12.4,14.9,18.5c1-3.5,1-3.5-8.9-15.6C150.8,59.1,149.6,57.1,146.2,57.9z"/>
	<path class="st0" d="M199.4,159c0.8-5.7-1.3-11-2.7-16.4c-0.2-0.8-1.6-1.4-2.5-2.1c-0.3,0.2-0.6,0.5-0.9,0.7c1.4,6,2.8,12,4.2,17.9
		C198.1,159.1,198.7,159,199.4,159z"/>
	<path class="st0" d="M185.9,114.6c-0.3-1.2-1.8-2.2-2.8-3.3c-0.5,0.4-1,0.8-1.4,1.2c3.2,5.5,3.6,12.1,7.5,17.4
		C191.2,124.1,187.2,119.6,185.9,114.6z"/>
	<path class="st0" d="M0,2C2.1,4.1,2.1,4,18.3,3.4c1.9-0.1,3.6,0,4.2-2.3C18.5-0.7,4.3-0.2,0,2z"/>
	<path class="st0" d="M65.6,10.2c6.2,2.8,12.4,5.6,18.6,8.3c0.7,0.3,1.8,0,2.9-0.1C84.7,14.7,70.5,8.6,65.6,10.2z"/>
	<path class="st0" d="M39.1,0.9c-2.1-0.5-4.3-1.3-6.5,1.5c8,1.8,15.5,3.5,23.2,5.3C54.4,4.3,54.4,4.3,39.1,0.9z"/>
	<path class="st0" d="M98.9,22.2c-1-0.8-2.8-0.6-4.2-0.8c-0.1,0.6-0.3,1.2-0.4,1.8c5.9,2.4,10.4,7.2,16.7,9
		C109,26.3,103.1,25.3,98.9,22.2z"/>
</g>
</svg>
