<?xml version="1.0" encoding="utf-8"?>
<!-- Generator: Adobe Illustrator 26.3.1, SVG Export Plug-In . SVG Version: 6.00 Build 0)  -->
<svg version="1.1" id="Vrstva_1" xmlns="http://www.w3.org/2000/svg" xmlns:xlink="http://www.w3.org/1999/xlink" x="0px" y="0px"
	 viewBox="0 0 213.4 195.4" style="enable-background:new 0 0 213.4 195.4;" xml:space="preserve">
<style type="text/css">
	.st0{fill:#FF7000;}
</style>
<g>
	<path class="st0" d="M1.2,163.7c4.1,3.3,3.6,8.6,6.5,11.8c2.8-2.3-0.5-7.5,5.1-9.2c-0.2,5.1-0.5,9.8-0.7,14.4
		c0.4,0.1,0.7,0.2,1.1,0.3c1.6-2.6,3.2-5.2,4.8-7.9c3.3-5.3,3.3-5.3,6.2-5.6c0,0.3,0.1,0.7,0,0.9c-3.7,7.6-7.5,15.2-11.3,22.7
		c-0.7,1.3-1.7,2.5-2.8,4.1c-0.9-1.1-1.5-1.5-1.7-2c-2.9-8.8-5.7-17.7-8.4-26.6C-0.2,166.1,0.6,165.1,1.2,163.7z"/>
	<path class="st0" d="M92.6,37.3c-0.3,2.9-0.4,2.9-13.5,12.5c-1.5,1.1-2.8,2.2-4.7,0.9C76.3,46.7,87.9,38.3,92.6,37.3z"/>
	<path class="st0" d="M46.3,84.5c-3.1,6-6.2,12.1-9.4,18.1c-0.4,0.7-1.4,1.1-2.3,1.7C34.1,99.9,41.4,86.3,46.3,84.5z"/>
	<path class="st0" d="M67.3,57.9c-5.2,6.4-9.9,12.4-14.9,18.5c-1-3.5-1-3.5,8.9-15.6C62.6,59.1,63.8,57.1,67.3,57.9z"/>
	<path class="st0" d="M14.1,159c-0.8-5.7,1.3-11,2.7-16.4c0.2-0.8,1.6-1.4,2.5-2.1c0.3,0.2,0.6,0.5,0.9,0.7c-1.4,6-2.8,12-4.2,17.9
		C15.4,159.1,14.7,159,14.1,159z"/>
	<path class="st0" d="M27.6,114.6c0.3-1.2,1.8-2.2,2.8-3.3c0.5,0.4,1,0.8,1.4,1.2c-3.2,5.5-3.6,12.1-7.5,17.4
		C22.3,124.1,26.2,119.6,27.6,114.6z"/>
	<path class="st0" d="M213.4,2c-2.1,2.1-2.1,2.1-18.3,1.4c-1.9-0.1-3.6,0-4.2-2.3C194.9-0.7,209.2-0.2,213.4,2z"/>
	<path class="st0" d="M147.9,10.2c-6.2,2.8-12.4,5.6-18.6,8.3c-0.7,0.3-1.8,0-2.9-0.1C128.8,14.7,142.9,8.6,147.9,10.2z"/>
	<path class="st0" d="M174.3,0.9c2.1-0.5,4.3-1.3,6.5,1.5c-8,1.8-15.5,3.5-23.2,5.3C159.1,4.3,159.1,4.3,174.3,0.9z"/>
	<path class="st0" d="M114.5,22.2c1-0.8,2.8-0.6,4.2-0.8c0.1,0.6,0.3,1.2,0.4,1.8c-5.9,2.4-10.4,7.2-16.7,9
		C104.4,26.3,110.3,25.3,114.5,22.2z"/>
</g>
</svg>
